<svg xmlns="http://www.w3.org/2000/svg" viewBox="0 0 470 470" fill="currentColor">
  <path d="M462.5 110H7.5c-4.142 0-7.5 3.358-7.5 7.5v235c0 4.142 3.358 7.5 7.5 7.5h139.58c20.662 0 39.607-14.042 43.133-31.967l5.095-25.914c3.48-17.7 21.657-32.65 39.692-32.65s36.212 14.95 39.692 32.644l5.095 25.914c3.524 17.926 22.47 31.967 43.13 31.967H462.5c4.142 0 7.5-3.36 7.5-7.5v-235c0-4.142-3.358-7.5-7.5-7.5zM455 345H322.918c-13.285 0-26.296-9.095-28.413-19.86l-5.096-25.916c-4.858-24.677-29.266-44.753-54.41-44.753s-49.56 20.08-54.41 44.758l-5.1 25.914c-2.114 10.764-15.125 19.86-28.41 19.86H15V125h440v220z"/>
  <path d="M107.5 302.5c37.22 0 67.5-30.28 67.5-67.5s-30.28-67.5-67.5-67.5S40 197.78 40 235s30.28 67.5 67.5 67.5zm0-120c28.95 0 52.5 23.55 52.5 52.5s-23.55 52.5-52.5 52.5S55 263.95 55 235s23.55-52.5 52.5-52.5zm255 120c37.22 0 67.5-30.28 67.5-67.5s-30.28-67.5-67.5-67.5S295 197.78 295 235s30.28 67.5 67.5 67.5zm0-120c28.95 0 52.5 23.55 52.5 52.5s-23.55 52.5-52.5 52.5S310 263.95 310 235s23.55-52.5 52.5-52.5zm70 192.5c-4.142 0-7.5 3.358-7.5 7.5V405H242.5V291.97c0-4.14-3.358-7.5-7.5-7.5s-7.5 3.36-7.5 7.5V405H45v-22.5c0-4.142-3.358-7.5-7.5-7.5s-7.5 3.358-7.5 7.5v30c0 4.142 3.358 7.5 7.5 7.5h395c4.142 0 7.5-3.358 7.5-7.5v-30c0-4.143-3.358-7.5-7.5-7.5zM37.5 95c4.142 0 7.5-3.358 7.5-7.5V65h182.5v22.5c0 4.142 3.358 7.5 7.5 7.5s7.5-3.358 7.5-7.5V65H425v22.5c0 4.142 3.358 7.5 7.5 7.5s7.5-3.358 7.5-7.5v-30c0-4.142-3.358-7.5-7.5-7.5h-395c-4.142 0-7.5 3.358-7.5 7.5v30c0 4.142 3.358 7.5 7.5 7.5z"/>
  <circle cx="35" cy="145" r="7.5"/>
  <circle cx="35" cy="325" r="7.5"/>
  <circle cx="435" cy="145" r="7.5"/>
  <circle cx="435" cy="325" r="7.5"/>
</svg>